<svg width="38" height="39" viewBox="0 0 38 39" fill="none" xmlns="http://www.w3.org/2000/svg">
<path d="M36.8876 4.02715C36.1276 3.21965 35.0494 2.75411 33.9379 2.75411H30.3991C30.4134 2.1176 30.4229 1.46215 30.4229 0.787598H7.59915C7.59915 1.46206 7.60861 2.1176 7.6229 2.75411H4.0604C2.94888 2.75411 1.87067 3.21965 1.11067 4.02715C0.341111 4.83947 -0.0578147 5.9509 0.00861103 7.0767C0.64513 17.6882 6.12192 24.3477 14.8049 25.3357L13.1233 31.1877C11.1236 31.1877 9.50388 32.8074 9.50388 34.8071V38.7876H28.5229V34.8071C28.5229 32.8074 26.9032 31.1877 24.9034 31.1877L23.2219 25.3357C31.8859 24.3382 37.3579 17.6835 37.9897 7.0767C38.0561 5.95572 37.6572 4.8442 36.8876 4.02715ZM3.80388 6.84866C3.79915 6.7442 3.84192 6.67295 3.87986 6.63491C3.95111 6.55893 4.03665 6.55893 4.0604 6.55893H7.80344C8.3687 14.0307 10.0169 18.2677 11.6177 20.6617C5.52344 18.1062 4.06986 11.2804 3.80388 6.84866ZM26.4044 20.6474C28.0051 18.2487 29.6487 14.0164 30.2139 6.5542H33.9426C33.9711 6.5542 34.0519 6.5542 34.1232 6.63018C34.1612 6.66822 34.2039 6.73947 34.1992 6.84393C33.9284 11.2757 32.4797 18.0824 26.4044 20.6474Z" fill="#023AA2"/>
</svg>
