<svg width="36" height="45" viewBox="0 0 36 45" fill="none" xmlns="http://www.w3.org/2000/svg">
<path d="M35.287 10.3856L18.746 0.493719C18.2864 0.218891 17.7138 0.218891 17.2541 0.493719L0.71308 10.3856C0.271006 10.65 0 11.129 0 11.6461V17.2928C0 29.186 6.83586 40.0487 17.4732 44.1887C17.8119 44.3205 18.1879 44.3207 18.5268 44.1887C29.1384 40.059 36 29.2199 36 17.2928V11.6461C36.0001 11.1289 35.7292 10.65 35.287 10.3856ZM25.2084 18.9919L16.0638 28.1843C15.494 28.757 14.5702 28.757 14.0004 28.1843L10.7911 24.9582C10.2213 24.3856 10.2213 23.4568 10.7911 22.8841C11.3609 22.3114 12.2848 22.3114 12.8545 22.8841L15.0321 25.073L23.145 16.9177C23.7147 16.345 24.6386 16.345 25.2084 16.9177C25.7783 17.4905 25.7783 18.4192 25.2084 18.9919Z" fill="#023AA2"/>
</svg>
