<svg width="39" height="39" viewBox="0 0 39 39" fill="none" xmlns="http://www.w3.org/2000/svg">
<path d="M33.4333 18.0209H30.9V11.6876C30.9 10.6798 30.4996 9.71323 29.787 9.00059C29.0744 8.28795 28.1078 7.8876 27.1 7.8876H20.7667V5.35426C20.7667 4.0105 20.2329 2.72177 19.2827 1.77159C18.3325 0.821406 17.0438 0.287598 15.7 0.287598C14.3562 0.287598 13.0675 0.821406 12.1173 1.77159C11.1671 2.72177 10.6333 4.0105 10.6333 5.35426V7.8876H4.3C3.29218 7.8876 2.32563 8.28795 1.61299 9.00059C0.900356 9.71323 0.5 10.6798 0.5 11.6876V19.2876C0.5 19.6235 0.633452 19.9457 0.870998 20.1833C1.10854 20.4208 1.43073 20.5543 1.76667 20.5543H5.56667C6.23855 20.5543 6.88291 20.8212 7.358 21.2963C7.8331 21.7714 8.1 22.4157 8.1 23.0876C8.1 23.7595 7.8331 24.4038 7.358 24.8789C6.88291 25.354 6.23855 25.6209 5.56667 25.6209H1.76667C1.43073 25.6209 1.10854 25.7544 0.870998 25.9919C0.633452 26.2295 0.5 26.5517 0.5 26.8876V34.4876C0.5 35.4954 0.900356 36.462 1.61299 37.1746C2.32563 37.8872 3.29218 38.2876 4.3 38.2876H11.9C12.2359 38.2876 12.5581 38.1541 12.7957 37.9166C13.0332 37.6791 13.1667 37.3569 13.1667 37.0209V33.2209C13.1667 32.549 13.4336 31.9047 13.9087 31.4296C14.3838 30.9545 15.0281 30.6876 15.7 30.6876C16.3719 30.6876 17.0162 30.9545 17.4913 31.4296C17.9664 31.9047 18.2333 32.549 18.2333 33.2209V37.0209C18.2333 37.3569 18.3668 37.6791 18.6043 37.9166C18.8419 38.1541 19.1641 38.2876 19.5 38.2876H27.1C28.1078 38.2876 29.0744 37.8872 29.787 37.1746C30.4996 36.462 30.9 35.4954 30.9 34.4876V28.1543H33.4333C34.7771 28.1543 36.0658 27.6205 37.016 26.6703C37.9662 25.7201 38.5 24.4314 38.5 23.0876C38.5 21.7438 37.9662 20.4551 37.016 19.5049C36.0658 18.5547 34.7771 18.0209 33.4333 18.0209Z" fill="#023AA2"/>
</svg>
