<svg width="53" height="42" viewBox="0 0 53 42" fill="none" xmlns="http://www.w3.org/2000/svg">
<path d="M9.28339 37.311C9.28339 35.3828 7.98598 33.7544 6.18892 33.1409V18.1958L3.09446 16.802V33.141C1.2974 33.7544 0 35.3828 0 37.311C0 39.7609 2.08216 41.7539 4.64169 41.7539C7.20123 41.7539 9.28339 39.7609 9.28339 37.311Z" fill="#023AA2"/>
<path d="M43.0825 29.2959L41.54 20.4387L26.4059 27.2553L11.1687 20.4387L9.62622 29.2959C9.94918 29.4927 15.757 35.8301 26.4059 35.8301C36.9778 35.8301 42.773 29.4843 43.0825 29.2959Z" fill="#023AA2"/>
<path d="M0 12.1351L26.4061 23.9827L52.709 12.1351L26.4061 0.287598L0 12.1351ZM27.9533 13.6161H24.8589V10.6542H27.9533V13.6161Z" fill="#023AA2"/>
</svg>
