<svg width="42" height="41" viewBox="0 0 42 41" fill="none" xmlns="http://www.w3.org/2000/svg">
<path d="M41.4948 17.1073L32.459 25.9139L34.5919 38.3492C34.7475 39.2589 34.1361 40.1224 33.2263 40.278C32.8651 40.3397 32.4934 40.281 32.1688 40.1109L20.9997 34.2394L9.8311 40.1102C9.01376 40.5386 8.00372 40.2234 7.57525 39.4061C7.40512 39.0815 7.34632 38.7098 7.40817 38.3486L9.54075 25.914L0.504982 17.1073C-0.156055 16.4633 -0.169881 15.4054 0.473982 14.7444C0.730858 14.4808 1.06749 14.3092 1.43163 14.2565L13.9172 12.4425L19.5016 1.12951C19.9897 0.302124 21.0562 0.0270561 21.8836 0.515339C22.137 0.664807 22.3483 0.876129 22.4978 1.12951L28.0821 12.4425L40.5677 14.2558C41.4811 14.3879 42.1145 15.2356 41.9824 16.149C41.9297 16.5132 41.7582 16.8499 41.4945 17.1066L41.4948 17.1073Z" fill="#023AA2"/>
</svg>
