<svg width="78" height="79" viewBox="0 0 78 79" fill="none" xmlns="http://www.w3.org/2000/svg">
<path d="M65.8125 49.375H63.375V32.3125C63.3764 27.7748 61.9706 23.3484 59.3513 19.643C56.732 15.9376 53.0282 13.1356 48.75 11.623V7.9375C48.75 5.9981 47.9796 4.13814 46.6082 2.76678C45.2369 1.39542 43.3769 0.625 41.4375 0.625L36.5625 0.625C34.6231 0.625 32.7631 1.39542 31.3918 2.76678C30.0204 4.13814 29.25 5.9981 29.25 7.9375V11.6547C24.9781 13.1673 21.279 15.9649 18.6605 19.6636C16.042 23.3623 14.6323 27.7807 14.625 32.3125V49.375H12.1875C8.95636 49.3789 5.85867 50.6641 3.57391 52.9489C1.28915 55.2337 0.0038704 58.3314 0 61.5625L0 71.3125C0 73.2519 0.770422 75.1119 2.14178 76.4832C3.51314 77.8546 5.3731 78.625 7.3125 78.625H70.6875C72.6269 78.625 74.4869 77.8546 75.8582 76.4832C77.2296 75.1119 78 73.2519 78 71.3125V61.5625C77.9961 58.3314 76.7109 55.2337 74.4261 52.9489C72.1413 50.6641 69.0436 49.3789 65.8125 49.375ZM4.875 71.3125V61.5625C4.875 59.6231 5.64542 57.7631 7.01678 56.3918C8.38814 55.0204 10.2481 54.25 12.1875 54.25H14.625V73.75H7.3125C6.66603 73.75 6.04605 73.4932 5.58893 73.0361C5.13181 72.579 4.875 71.959 4.875 71.3125ZM19.5 51.8125V32.3125C19.507 28.4603 20.8159 24.7235 23.2141 21.7089C25.6124 18.6942 28.9592 16.5787 32.7113 15.7058C33.1378 15.6083 33.5692 15.5279 33.9982 15.4621C34.1932 15.4328 34.3858 15.3963 34.5808 15.3719C35.2385 15.2938 35.9002 15.2531 36.5625 15.25C37.209 15.25 37.829 14.9932 38.2861 14.5361C38.7432 14.079 39 13.459 39 12.8125C39 12.166 38.7432 11.546 38.2861 11.0889C37.829 10.6318 37.209 10.375 36.5625 10.375C35.7758 10.377 34.9899 10.4209 34.2079 10.5066C34.1811 10.5066 34.1518 10.5066 34.125 10.5066V7.9375C34.125 7.29103 34.3818 6.67105 34.8389 6.21393C35.296 5.75681 35.916 5.5 36.5625 5.5H41.4375C42.084 5.5 42.704 5.75681 43.1611 6.21393C43.6182 6.67105 43.875 7.29103 43.875 7.9375V13.4219C43.875 13.4853 43.9067 13.5389 43.9116 13.5998C43.9268 13.7655 43.9603 13.929 44.0115 14.0873C44.047 14.2279 44.0951 14.3649 44.1553 14.4968C44.2343 14.6415 44.3265 14.7786 44.4308 14.9063C44.5158 15.0198 44.6104 15.1258 44.7135 15.2232C44.8405 15.3296 44.9786 15.422 45.1254 15.4986C45.2522 15.5762 45.386 15.6415 45.5252 15.6936C45.5886 15.7156 45.6373 15.7643 45.7056 15.7814C49.3694 16.728 52.6146 18.8657 54.9307 21.8582C57.2469 24.8508 58.5025 28.5284 58.5 32.3125V49.375H26.8125C26.166 49.375 25.546 49.6318 25.0889 50.0889C24.6318 50.546 24.375 51.166 24.375 51.8125C24.375 52.459 24.6318 53.079 25.0889 53.5361C25.546 53.9932 26.166 54.25 26.8125 54.25H58.5V73.75H19.5V51.8125ZM73.125 71.3125C73.125 71.959 72.8682 72.579 72.4111 73.0361C71.954 73.4932 71.334 73.75 70.6875 73.75H63.375V54.25H65.8125C67.7519 54.25 69.6119 55.0204 70.9832 56.3918C72.3546 57.7631 73.125 59.6231 73.125 61.5625V71.3125Z" fill="#2459A8"/>
</svg>
