<svg width="80" height="60" viewBox="0 0 80 60" fill="none" xmlns="http://www.w3.org/2000/svg">
<path d="M77.9491 18.263L40.9179 0.981742C40.5909 0.829104 40.2344 0.75 39.8736 0.75C39.5127 0.75 39.1563 0.829104 38.8293 0.981742L1.79805 18.263C1.37256 18.4618 1.0126 18.7778 0.760412 19.174C0.508223 19.5702 0.374268 20.03 0.374268 20.4997C0.374268 20.9693 0.508223 21.4292 0.760412 21.8254C1.0126 22.2216 1.37256 22.5376 1.79805 22.7364L15.1861 28.9848V47.6559C15.1861 54.6943 25.8017 59.9997 39.8736 59.9997C53.9455 59.9997 64.5611 54.6943 64.5611 47.6559V28.9848L69.4986 26.679V40.2497C69.4986 40.9044 69.7587 41.5324 70.2216 41.9953C70.6846 42.4583 71.3126 42.7184 71.9673 42.7184C72.6221 42.7184 73.25 42.4583 73.713 41.9953C74.176 41.5324 74.4361 40.9044 74.4361 40.2497V24.3756L77.9491 22.7364C78.3746 22.5376 78.7346 22.2216 78.9867 21.8254C79.2389 21.4292 79.3729 20.9693 79.3729 20.4997C79.3729 20.03 79.2389 19.5702 78.9867 19.174C78.7346 18.7778 78.3746 18.4618 77.9491 18.263ZM59.6236 47.6559C59.6236 50.6777 51.931 55.0622 39.8736 55.0622C27.8162 55.0622 20.1236 50.6777 20.1236 47.6559V31.2881L38.8293 40.0176C39.1563 40.1703 39.5127 40.2494 39.8736 40.2494C40.2344 40.2494 40.5909 40.1703 40.9179 40.0176L53.2616 34.2556C53.8447 33.9724 54.293 33.4712 54.5097 32.8603C54.7264 32.2494 54.6942 31.5778 54.42 30.9905C54.1458 30.4031 53.6516 29.9472 53.0441 29.7211C52.4366 29.4951 51.7645 29.517 51.173 29.7822L39.8736 35.0653L8.67846 20.4997L39.8736 5.93405L71.0662 20.4997L61.048 25.1755C60.5835 25.3954 60.2001 25.7561 59.9523 26.2064C59.7046 26.6567 59.6051 27.1737 59.668 27.6837C59.6494 27.757 59.6346 27.8312 59.6236 27.9059V47.6559Z" fill="#2459A8"/>
</svg>
