<svg width="68" height="54" viewBox="0 0 68 54" fill="none" xmlns="http://www.w3.org/2000/svg">
<path d="M65.3116 0.901611V4.78934C59.8295 6.79932 55.5333 9.97297 52.4233 14.3103C49.3132 18.5947 47.7581 23.0643 47.7581 27.719C47.7581 28.724 47.9163 29.4645 48.2326 29.9405C48.4434 30.2579 48.6806 30.4166 48.9442 30.4166C49.2078 30.4166 49.6031 30.2315 50.1302 29.8612C51.8171 28.6446 53.9519 28.0363 56.5349 28.0363C59.5395 28.0363 62.2016 29.2794 64.5209 31.7654C66.8403 34.1985 68 37.1077 68 40.4929C68 44.0368 66.6558 47.1576 63.9674 49.8552C61.3318 52.5528 58.1163 53.9016 54.3209 53.9016C49.893 53.9016 46.0713 52.0768 42.8558 48.4271C39.6403 44.7774 38.0326 39.8846 38.0326 33.7489C38.0326 26.6082 40.2202 20.208 44.5953 14.5483C48.9705 8.88864 55.876 4.33974 65.3116 0.901611ZM27.2791 0.901611V4.78934C21.7969 6.79932 17.5008 9.97297 14.3907 14.3103C11.2806 18.5947 9.72558 23.0643 9.72558 27.719C9.72558 28.724 9.88372 29.4645 10.2 29.9405C10.4109 30.2579 10.6481 30.4166 10.9116 30.4166C11.1752 30.4166 11.5705 30.2315 12.0977 29.8612C13.7845 28.6446 15.9194 28.0363 18.5023 28.0363C21.507 28.0363 24.169 29.2794 26.4884 31.7654C28.8078 34.1985 29.9674 37.1077 29.9674 40.4929C29.9674 44.0368 28.6233 47.1576 25.9349 49.8552C23.2992 52.5528 20.0837 53.9016 16.2884 53.9016C11.8605 53.9016 8.03876 52.0768 4.82326 48.4271C1.60775 44.7774 0 39.8846 0 33.7489C0 26.6082 2.1876 20.208 6.56279 14.5483C10.938 8.88864 17.8434 4.33974 27.2791 0.901611Z" fill="#023AA2"/>
</svg>
