<svg width="68" height="54" viewBox="0 0 68 54" fill="none" xmlns="http://www.w3.org/2000/svg">
<path d="M2.68837 53.9016V50.0139C8.17054 48.0039 12.4667 44.8303 15.5767 40.4929C18.6868 36.2085 20.2419 31.7389 20.2419 27.0842C20.2419 26.0793 20.0837 25.3387 19.7674 24.8627C19.5566 24.5453 19.3194 24.3866 19.0558 24.3866C18.7922 24.3866 18.3969 24.5718 17.8698 24.942C16.1829 26.1586 14.0481 26.7669 11.4651 26.7669C8.46046 26.7669 5.79845 25.5239 3.47906 23.0378C1.15969 20.6047 0 17.6955 0 14.3103C0 10.7664 1.34418 7.64562 4.03256 4.94802C6.66822 2.25042 9.88372 0.901611 13.6791 0.901611C18.107 0.901611 21.9287 2.72646 25.1442 6.37616C28.3597 10.0259 29.9674 14.9186 29.9674 21.0543C29.9674 28.195 27.7798 34.5952 23.4047 40.2549C19.0295 45.9146 12.124 50.4635 2.68837 53.9016ZM40.7209 53.9016V50.0139C46.2031 48.0039 50.4992 44.8303 53.6093 40.4929C56.7194 36.2085 58.2744 31.7389 58.2744 27.0842C58.2744 26.0793 58.1163 25.3387 57.8 24.8627C57.5891 24.5453 57.3519 24.3866 57.0884 24.3866C56.8248 24.3866 56.4295 24.5718 55.9023 24.942C54.2155 26.1586 52.0806 26.7669 49.4977 26.7669C46.493 26.7669 43.831 25.5239 41.5116 23.0378C39.1922 20.6047 38.0326 17.6955 38.0326 14.3103C38.0326 10.7664 39.3767 7.64562 42.0651 4.94802C44.7008 2.25042 47.9163 0.901611 51.7116 0.901611C56.1395 0.901611 59.9612 2.72646 63.1767 6.37616C66.3922 10.0259 68 14.9186 68 21.0543C68 28.195 65.8124 34.5952 61.4372 40.2549C57.062 45.9146 50.1566 50.4635 40.7209 53.9016Z" fill="#023AA2"/>
</svg>
